/* XPM */

/* wall_east */

static char *wall_west[] = {
/* columns rows colors chars-per-pixel */
"64 64 6 1",
"  c #2D682D",
". c #336E33",
"+ c #245024",
"@ c #3A853A",
"# c #2A5F2A",
"o c #307030",
/* pixels */
"o@#.o@#.o@#.o@#.o@#.o@#.o@#.o@#.o@#.o@#.o@#.o@#.o@#.o@#.o@#.o@#.",
"o@#.o@#.o@#.o@#.o@#.o@#.o@#.o@#.o@#.o@#.o@#.o@#.o@#.o@#.o@#.o@#.",
" .#+ .#+ .#+ .#+ .#+ .#+ .#+ .#+ .#+ .#+ .#+ .#+ .#+ .#+ .#+ .#+", 
" .#+ .#+ .#+ .#+ .#+ .#+ .#+ .#+ .#+ .#+ .#+ .#+ .#+ .#+ .#+ .#+",
"o@#.o@#.o@#.o@#.o@#.o@#.o@#.o@#.o@#.o@#.o@#.o@#.o@#.o@#.o@#.o@#.",
"o@#.o@#.o@#.o@#.o@#.o@#.o@#.o@#.o@#.o@#.o@#.o@#.o@#.o@#.o@#.o@#.",
" .#+ .#+ .#+ .#+ .#+ .#+ .#+ .#+ .#+ .#+ .#+ .#+ .#+ .#+ .#+ .#+",
" .#+ .#+ .#+ .#+ .#+ .#+ .#+ .#+ .#+ .#+ .#+ .#+ .#+ .#+ .#+ .#+",
"o@#.o@#.o@#.o@#.o@#.o@#.o@#.o@#.o@#.o@#.o@#.o@#.o@#.o@#.o@#.o@#.",
"o@#.o@#.o@#.o@#.o@#.o@#.o@#.o@#.o@#.o@#.o@#.o@#.o@#.o@#.o@#.o@#.",
" .#+ .#+ .#+ .#+ .#+ .#+ .#+ .#+ .#+ .#+ .#+ .#+ .#+ .#+ .#+ .#+",
" .#+ .#+ .#+ .#+ .#+ .#+ .#+ .#+ .#+ .#+ .#+ .#+ .#+ .#+ .#+ .#+",
"o@#.o@#.o@#.o@#.o@#.o@#.o@#.o@#.o@#.o@#.o@#.o@#.o@#.o@#.o@#.o@#.",
"o@#.o@#.o@#.o@#.o@#.o@#.o@#.o@#.o@#.o@#.o@#.o@#.o@#.o@#.o@#.o@#.",
"o@#.o@#.o@#.o@#.o@#.o@#.o@#.o@#.o@#.o@#.o@#.o@#.o@#.o@#.o@#.o@#.",
"o@#.o@#.o@#.o@#.o@#.o@#.o@#.o@#.o@#.o@#.o@#.o@#.o@#.o@#.o@#.o@#.",
"o@#.o@#.o@#.o@#.o@#.o@#.o@#.o@#.o@#.o@#.o@#.o@#.o@#.o@#.o@#.o@#.",
"o@#.o@#.o@#.o@#.o@#.o@#.o@#.o@#.o@#.o@#.o@#.o@#.o@#.o@#.o@#.o@#.",
"o@#.o@#.o@#.o@#.o@#.o@#.o@#.o@#.o@#.o@#.o@#.o@#.o@#.o@#.o@#.o@#.",
"o@#.o@#.o@#.o@#.o@#.o@#.o@#.o@#.o@#.o@#.o@#.o@#.o@#.o@#.o@#.o@#.",
"o@#.o@#.o@#.o@#.o@#.o@#.o@#.o@#.o@#.o@#.o@#.o@#.o@#.o@#.o@#.o@#.",
" .#+ .#+ .#+ .#+ .#+ .#+ .#+ .#+ .#+ .#+ .#+ .#+ .#+ .#+ .#+ .#+",
" .#+ .#+ .#+ .#+ .#+ .#+ .#+ .#+ .#+ .#+ .#+ .#+ .#+ .#+ .#+ .#+",
" .#+ .#+ .#+ .#+ .#+ .#+ .#+ .#+ .#+ .#+ .#+ .#+ .#+ .#+ .#+ .#+",
" .#+ .#+ .#+ .#+ .#+ .#+ .#+ .#+ .#+ .#+ .#+ .#+ .#+ .#+ .#+ .#+",
" .#+ .#+ .#+ .#+ .#+ .#+ .#+ .#+ .#+ .#+ .#+ .#+ .#+ .#+ .#+ .#+",
" .#+ .#+ .#+ .#+ .#+ .#+ .#+ .#+ .#+ .#+ .#+ .#+ .#+ .#+ .#+ .#+",
"o@#.o@#.o@#.o@#.o@#.o@#.o@#.o@#.o@#.o@#.o@#.o@#.o@#.o@#.o@#.o@#.",
"o@#.o@#.o@#.o@#.o@#.o@#.o@#.o@#.o@#.o@#.o@#.o@#.o@#.o@#.o@#.o@#.",
"o@#.o@#.o@#.o@#.o@#.o@#.o@#.o@#.o@#.o@#.o@#.o@#.o@#.o@#.o@#.o@#.",
"o@#.o@#.o@#.o@#.o@#.o@#.o@#.o@#.o@#.o@#.o@#.o@#.o@#.o@#.o@#.o@#.",
"o@#.o@#.o@#.o@#.o@#.o@#.o@#.o@#.o@#.o@#.o@#.o@#.o@#.o@#.o@#.o@#.",
"o@#.o@#.o@#.o@#.o@#.o@#.o@#.o@#.o@#.o@#.o@#.o@#.o@#.o@#.o@#.o@#.",
"o@#.o@#.o@#.o@#.o@#.o@#.o@#.o@#.o@#.o@#.o@#.o@#.o@#.o@#.o@#.o@#.",
"o@#.o@#.o@#.o@#.o@#.o@#.o@#.o@#.o@#.o@#.o@#.o@#.o@#.o@#.o@#.o@#.",
"o@#.o@#.o@#.o@#.o@#.o@#.o@#.o@#.o@#.o@#.o@#.o@#.o@#.o@#.o@#.o@#.",
" .#+ .#+ .#+ .#+ .#+ .#+ .#+ .#+ .#+ .#+ .#+ .#+ .#+ .#+ .#+ .#+",
" .#+ .#+ .#+ .#+ .#+ .#+ .#+ .#+ .#+ .#+ .#+ .#+ .#+ .#+ .#+ .#+",
" .#+ .#+ .#+ .#+ .#+ .#+ .#+ .#+ .#+ .#+ .#+ .#+ .#+ .#+ .#+ .#+",
" .#+ .#+ .#+ .#+ .#+ .#+ .#+ .#+ .#+ .#+ .#+ .#+ .#+ .#+ .#+ .#+",
" .#+ .#+ .#+ .#+ .#+ .#+ .#+ .#+ .#+ .#+ .#+ .#+ .#+ .#+ .#+ .#+",
" .#+ .#+ .#+ .#+ .#+ .#+ .#+ .#+ .#+ .#+ .#+ .#+ .#+ .#+ .#+ .#+",
"o@#.o@#.o@#.o@#.o@#.o@#.o@#.o@#.o@#.o@#.o@#.o@#.o@#.o@#.o@#.o@#.",
"o@#.o@#.o@#.o@#.o@#.o@#.o@#.o@#.o@#.o@#.o@#.o@#.o@#.o@#.o@#.o@#.",
"o@#.o@#.o@#.o@#.o@#.o@#.o@#.o@#.o@#.o@#.o@#.o@#.o@#.o@#.o@#.o@#.",
"o@#.o@#.o@#.o@#.o@#.o@#.o@#.o@#.o@#.o@#.o@#.o@#.o@#.o@#.o@#.o@#.",
"o@#.o@#.o@#.o@#.o@#.o@#.o@#.o@#.o@#.o@#.o@#.o@#.o@#.o@#.o@#.o@#.",
"o@#.o@#.o@#.o@#.o@#.o@#.o@#.o@#.o@#.o@#.o@#.o@#.o@#.o@#.o@#.o@#.",
"o@#.o@#.o@#.o@#.o@#.o@#.o@#.o@#.o@#.o@#.o@#.o@#.o@#.o@#.o@#.o@#.",
"o@#.o@#.o@#.o@#.o@#.o@#.o@#.o@#.o@#.o@#.o@#.o@#.o@#.o@#.o@#.o@#.",
"o@#.o@#.o@#.o@#.o@#.o@#.o@#.o@#.o@#.o@#.o@#.o@#.o@#.o@#.o@#.o@#.",
" .#+ .#+ .#+ .#+ .#+ .#+ .#+ .#+ .#+ .#+ .#+ .#+ .#+ .#+ .#+ .#+",
" .#+ .#+ .#+ .#+ .#+ .#+ .#+ .#+ .#+ .#+ .#+ .#+ .#+ .#+ .#+ .#+",
" .#+ .#+ .#+ .#+ .#+ .#+ .#+ .#+ .#+ .#+ .#+ .#+ .#+ .#+ .#+ .#+",
" .#+ .#+ .#+ .#+ .#+ .#+ .#+ .#+ .#+ .#+ .#+ .#+ .#+ .#+ .#+ .#+",
" .#+ .#+ .#+ .#+ .#+ .#+ .#+ .#+ .#+ .#+ .#+ .#+ .#+ .#+ .#+ .#+",
" .#+ .#+ .#+ .#+ .#+ .#+ .#+ .#+ .#+ .#+ .#+ .#+ .#+ .#+ .#+ .#+",
"o@#.o@#.o@#.o@#.o@#.o@#.o@#.o@#.o@#.o@#.o@#.o@#.o@#.o@#.o@#.o@#.",
"o@#.o@#.o@#.o@#.o@#.o@#.o@#.o@#.o@#.o@#.o@#.o@#.o@#.o@#.o@#.o@#.",
"o@#.o@#.o@#.o@#.o@#.o@#.o@#.o@#.o@#.o@#.o@#.o@#.o@#.o@#.o@#.o@#.",
"o@#.o@#.o@#.o@#.o@#.o@#.o@#.o@#.o@#.o@#.o@#.o@#.o@#.o@#.o@#.o@#.",
"o@#.o@#.o@#.o@#.o@#.o@#.o@#.o@#.o@#.o@#.o@#.o@#.o@#.o@#.o@#.o@#.",
"o@#.o@#.o@#.o@#.o@#.o@#.o@#.o@#.o@#.o@#.o@#.o@#.o@#.o@#.o@#.o@#.",
"o@#.o@#.o@#.o@#.o@#.o@#.o@#.o@#.o@#.o@#.o@#.o@#.o@#.o@#.o@#.o@#.",
"o@#.o@#.o@#.o@#.o@#.o@#.o@#.o@#.o@#.o@#.o@#.o@#.o@#.o@#.o@#.o@#.", 
};