/* XPM */
static char *wall_east[] = {
/* columns rows colors chars-per-pixel */
"64 64 6 1",
"  c #2D682D", /* Medium green base */
". c #336E33", /* Light green */
"+ c #245024", /* Dark green shadow */
"@ c #3A853A", /* Bright green highlight */
"# c #2A5F2A", /* Medium dark green */
"o c #307030", /* Transition green */
/* pixels */
"o@#.o@#.o@#.o@#.o@#.o@#.o@#.o@#.o@#.o@#.o@#.o@#.o@#.o@#.o@#.o@#.",
"o@#.o@#.o@#.o@#.o@#.o@#.o@#.o@#.o@#.o@#.o@#.o@#.o@#.o@#.o@#.o@#.",
" .#+ .#+ .#+ .#+ .#+ .#+ .#+ .#+ .#+ .#+ .#+ .#+ .#+ .#+ .#+ .#+", 
" .#+ .#+ .#+ .#+ .#+ .#+ .#+ .#+ .#+ .#+ .#+ .#+ .#+ .#+ .#+ .#+",
"o@#.o@#.o@#.o@#.o@#.o@#.o@#.o@#.o@#.o@#.o@#.o@#.o@#.o@#.o@#.o@#.",
"o@#.o@#.o@#.o@#.o@#.o@#.o@#.o@#.o@#.o@#.o@#.o@#.o@#.o@#.o@#.o@#.",
" .#+ .#+ .#+ .#+ .#+ .#+ .#+ .#+ .#+ .#+ .#+ .#+ .#+ .#+ .#+ .#+",
" .#+ .#+ .#+ .#+ .#+ .#+ .#+ .#+ .#+ .#+ .#+ .#+ .#+ .#+ .#+ .#+",
"o@#.o@#.o@#.o@#.o@#.o@#.o@#.o@#.o@#.o@#.o@#.o@#.o@#.o@#.o@#.o@#.",
"o@#.o@#.o@#.o@#.o@#.o@#.o@#.o@#.o@#.o@#.o@#.o@#.o@#.o@#.o@#.o@#.",
" .#+ .#+ .#+ .#+ .#+ .#+ .#+ .#+ .#+ .#+ .#+ .#+ .#+ .#+ .#+ .#+",
" .#+ .#+ .#+ .#+ .#+ .#+ .#+ .#+ .#+ .#+ .#+ .#+ .#+ .#+ .#+ .#+",
"o@#.o@#.o@#.o@#.o@#.o@#.o@#.o@#.o@#.o@#.o@#.o@#.o@#.o@#.o@#.o@#.",
"o@#.o@#.o@#.o@#.o@#.o@#.o@#.o@#.o@#.o@#.o@#.o@#.o@#.o@#.o@#.o@#.",
"o@#.o@#.o@#.o@#.o@#.o@#.o@#.o@#.o@#.o@#.o@#.o@#.o@#.o@#.o@#.o@#.",
"o@#.o@#.o@#.o@#.o@#.o@#.o@#.o@#.o@#.o@#.o@#.o@#.o@#.o@#.o@#.o@#.",
"o@#.o@#.o@#.o@#.o@#.o@#.o@#.o@#.o@#.o@#.o@#.o@#.o@#.o@#.o@#.o@#.",
"o@#.o@#.o@#.o@#.o@#.o@#.o@#.o@#.o@#.o@#.o@#.o@#.o@#.o@#.o@#.o@#.",
"o@#.o@#.o@#.o@#.o@#.o@#.o@#.o@#.o@#.o@#.o@#.o@#.o@#.o@#.o@#.o@#.",
"o@#.o@#.o@#.o@#.o@#.o@#.o@#.o@#.o@#.o@#.o@#.o@#.o@#.o@#.o@#.o@#.",
"o@#.o@#.o@#.o@#.o@#.o@#.o@#.o@#.o@#.o@#.o@#.o@#.o@#.o@#.o@#.o@#.",
" .#+ .#+ .#+ .#+ .#+ .#+ .#+ .#+ .#+ .#+ .#+ .#+ .#+ .#+ .#+ .#+",
" .#+ .#+ .#+ .#+ .#+ .#+ .#+ .#+ .#+ .#+ .#+ .#+ .#+ .#+ .#+ .#+",
" .#+ .#+ .#+ .#+ .#+ .#+ .#+ .#+ .#+ .#+ .#+ .#+ .#+ .#+ .#+ .#+",
" .#+ .#+ .#+ .#+ .#+ .#+ .#+ .#+ .#+ .#+ .#+ .#+ .#+ .#+ .#+ .#+",
" .#+ .#+ .#+ .#+ .#+ .#+ .#+ .#+ .#+ .#+ .#+ .#+ .#+ .#+ .#+ .#+",
" .#+ .#+ .#+ .#+ .#+ .#+ .#+ .#+ .#+ .#+ .#+ .#+ .#+ .#+ .#+ .#+",
"o@#.o@#.o@#.o@#.o@#.o@#.o@#.o@#.o@#.o@#.o@#.o@#.o@#.o@#.o@#.o@#.",
"o@#.o@#.o@#.o@#.o@#.o@#.o@#.o@#.o@#.o@#.o@#.o@#.o@#.o@#.o@#.o@#.",
"o@#.o@#.o@#.o@#.o@#.o@#.o@#.o@#.o@#.o@#.o@#.o@#.o@#.o@#.o@#.o@#.",
"o@#.o@#.o@#.o@#.o@#.o@#.o@#.o@#.o@#.o@#.o@#.o@#.o@#.o@#.o@#.o@#.",
"o@#.o@#.o@#.o@#.o@#.o@#.o@#.o@#.o@#.o@#.o@#.o@#.o@#.o@#.o@#.o@#.",
"o@#.o@#.o@#.o@#.o@#.o@#.o@#.o@#.o@#.o@#.o@#.o@#.o@#.o@#.o@#.o@#.",
"o@#.o@#.o@#.o@#.o@#.o@#.o@#.o@#.o@#.o@#.o@#.o@#.o@#.o@#.o@#.o@#.",
"o@#.o@#.o@#.o@#.o@#.o@#.o@#.o@#.o@#.o@#.o@#.o@#.o@#.o@#.o@#.o@#.",
"o@#.o@#.o@#.o@#.o@#.o@#.o@#.o@#.o@#.o@#.o@#.o@#.o@#.o@#.o@#.o@#.",
" .#+ .#+ .#+ .#+ .#+ .#+ .#+ .#+ .#+ .#+ .#+ .#+ .#+ .#+ .#+ .#+",
" .#+ .#+ .#+ .#+ .#+ .#+ .#+ .#+ .#+ .#+ .#+ .#+ .#+ .#+ .#+ .#+",
" .#+ .#+ .#+ .#+ .#+ .#+ .#+ .#+ .#+ .#+ .#+ .#+ .#+ .#+ .#+ .#+",
" .#+ .#+ .#+ .#+ .#+ .#+ .#+ .#+ .#+ .#+ .#+ .#+ .#+ .#+ .#+ .#+",
" .#+ .#+ .#+ .#+ .#+ .#+ .#+ .#+ .#+ .#+ .#+ .#+ .#+ .#+ .#+ .#+",
" .#+ .#+ .#+ .#+ .#+ .#+ .#+ .#+ .#+ .#+ .#+ .#+ .#+ .#+ .#+ .#+",
"o@#.o@#.o@#.o@#.o@#.o@#.o@#.o@#.o@#.o@#.o@#.o@#.o@#.o@#.o@#.o@#.",
"o@#.o@#.o@#.o@#.o@#.o@#.o@#.o@#.o@#.o@#.o@#.o@#.o@#.o@#.o@#.o@#.",
"o@#.o@#.o@#.o@#.o@#.o@#.o@#.o@#.o@#.o@#.o@#.o@#.o@#.o@#.o@#.o@#.",
"o@#.o@#.o@#.o@#.o@#.o@#.o@#.o@#.o@#.o@#.o@#.o@#.o@#.o@#.o@#.o@#.",
"o@#.o@#.o@#.o@#.o@#.o@#.o@#.o@#.o@#.o@#.o@#.o@#.o@#.o@#.o@#.o@#.",
"o@#.o@#.o@#.o@#.o@#.o@#.o@#.o@#.o@#.o@#.o@#.o@#.o@#.o@#.o@#.o@#.",
"o@#.o@#.o@#.o@#.o@#.o@#.o@#.o@#.o@#.o@#.o@#.o@#.o@#.o@#.o@#.o@#.",
"o@#.o@#.o@#.o@#.o@#.o@#.o@#.o@#.o@#.o@#.o@#.o@#.o@#.o@#.o@#.o@#.",
"o@#.o@#.o@#.o@#.o@#.o@#.o@#.o@#.o@#.o@#.o@#.o@#.o@#.o@#.o@#.o@#.",
" .#+ .#+ .#+ .#+ .#+ .#+ .#+ .#+ .#+ .#+ .#+ .#+ .#+ .#+ .#+ .#+",
" .#+ .#+ .#+ .#+ .#+ .#+ .#+ .#+ .#+ .#+ .#+ .#+ .#+ .#+ .#+ .#+",
" .#+ .#+ .#+ .#+ .#+ .#+ .#+ .#+ .#+ .#+ .#+ .#+ .#+ .#+ .#+ .#+",
" .#+ .#+ .#+ .#+ .#+ .#+ .#+ .#+ .#+ .#+ .#+ .#+ .#+ .#+ .#+ .#+",
" .#+ .#+ .#+ .#+ .#+ .#+ .#+ .#+ .#+ .#+ .#+ .#+ .#+ .#+ .#+ .#+",
" .#+ .#+ .#+ .#+ .#+ .#+ .#+ .#+ .#+ .#+ .#+ .#+ .#+ .#+ .#+ .#+",
"o@#.o@#.o@#.o@#.o@#.o@#.o@#.o@#.o@#.o@#.o@#.o@#.o@#.o@#.o@#.o@#.",
"o@#.o@#.o@#.o@#.o@#.o@#.o@#.o@#.o@#.o@#.o@#.o@#.o@#.o@#.o@#.o@#.",
"o@#.o@#.o@#.o@#.o@#.o@#.o@#.o@#.o@#.o@#.o@#.o@#.o@#.o@#.o@#.o@#.",
"o@#.o@#.o@#.o@#.o@#.o@#.o@#.o@#.o@#.o@#.o@#.o@#.o@#.o@#.o@#.o@#.",
"o@#.o@#.o@#.o@#.o@#.o@#.o@#.o@#.o@#.o@#.o@#.o@#.o@#.o@#.o@#.o@#.",
"o@#.o@#.o@#.o@#.o@#.o@#.o@#.o@#.o@#.o@#.o@#.o@#.o@#.o@#.o@#.o@#.",
"o@#.o@#.o@#.o@#.o@#.o@#.o@#.o@#.o@#.o@#.o@#.o@#.o@#.o@#.o@#.o@#.",
"o@#.o@#.o@#.o@#.o@#.o@#.o@#.o@#.o@#.o@#.o@#.o@#.o@#.o@#.o@#.o@#.", 
};